<svg width="127" height="29" viewBox="0 0 127 29" fill="none" xmlns="http://www.w3.org/2000/svg">
<path d="M4.624 28V4.251H0.204V0.8H12.937V4.251H8.517V28H4.624ZM19.0354 28V0.8H29.7624V4.251H22.9284V12.513H29.4224V15.964H22.9284V24.549H29.7624V28H19.0354ZM42.4805 28.289C40.2932 28.289 38.7122 27.847 37.7375 26.963C36.7628 26.0677 36.2302 24.5887 36.1395 22.526C36.1282 22.016 36.1225 21.5117 36.1225 21.013C36.1225 20.5143 36.1282 20.0157 36.1395 19.517C36.1622 19.007 36.1962 18.497 36.2415 17.987H39.9305C39.8852 18.8937 39.8568 19.7833 39.8455 20.656C39.8342 21.5173 39.8625 22.356 39.9305 23.172C39.9758 23.8293 40.2025 24.311 40.6105 24.617C41.0185 24.9117 41.6418 25.059 42.4805 25.059C43.2625 25.059 43.8518 24.9117 44.2485 24.617C44.6452 24.311 44.8718 23.8293 44.9285 23.172C44.9738 22.73 45.0022 22.271 45.0135 21.795C45.0248 21.319 45.0192 20.843 44.9965 20.367C44.9852 19.891 44.9625 19.4377 44.9285 19.007C44.8945 18.3043 44.7018 17.7433 44.3505 17.324C43.9992 16.9047 43.4948 16.6157 42.8375 16.457L40.3215 15.862C39.2675 15.6127 38.4345 15.2387 37.8225 14.74C37.2105 14.23 36.7685 13.5783 36.4965 12.785C36.2358 11.9803 36.0885 11.0113 36.0545 9.878C36.0432 9.266 36.0375 8.65967 36.0375 8.059C36.0488 7.45833 36.0602 6.852 36.0715 6.24C36.1168 4.86867 36.3605 3.76367 36.8025 2.925C37.2558 2.08633 37.9415 1.47433 38.8595 1.089C39.7888 0.703665 40.9958 0.510998 42.4805 0.510998C44.6338 0.510998 46.1922 0.952999 47.1555 1.837C48.1188 2.721 48.6402 4.19433 48.7195 6.257C48.7422 6.85767 48.7478 7.54333 48.7365 8.314C48.7252 9.08467 48.7025 9.84967 48.6685 10.609H44.9115C44.9455 9.70233 44.9682 8.841 44.9795 8.025C44.9908 7.209 44.9795 6.40433 44.9455 5.611C44.9228 4.95367 44.7075 4.47767 44.2995 4.183C43.9028 3.88833 43.2908 3.741 42.4635 3.741C41.6588 3.741 41.0525 3.88833 40.6445 4.183C40.2478 4.47767 40.0212 4.95367 39.9645 5.611C39.9078 6.33633 39.8795 7.05033 39.8795 7.753C39.8795 8.44433 39.9078 9.15267 39.9645 9.878C40.0098 10.592 40.1572 11.1587 40.4065 11.578C40.6558 11.9973 41.0808 12.275 41.6815 12.411L43.9595 12.904C45.1268 13.1647 46.0618 13.5557 46.7645 14.077C47.4672 14.587 47.9772 15.25 48.2945 16.066C48.6232 16.882 48.8102 17.8623 48.8555 19.007C48.8668 19.3697 48.8725 19.755 48.8725 20.163C48.8725 20.571 48.8668 20.979 48.8555 21.387C48.8442 21.7837 48.8328 22.1633 48.8215 22.526C48.7422 24.5887 48.2095 26.0677 47.2235 26.963C46.2488 27.847 44.6678 28.289 42.4805 28.289ZM58.792 28V4.251H54.372V0.8H67.105V4.251H62.685V28H58.792ZM73.3394 28V0.8H82.9784V3.486H76.3314V12.955H82.6384V15.641H76.3314V28H73.3394ZM89.6246 28V0.8H92.6166V25.314H98.9746V28H89.6246ZM105.246 28V0.8H108.238V28H105.246ZM114.891 28L118.223 14.094L115.044 0.8H117.968L119.396 7.209L120.246 12.853H121.368L122.218 7.209L123.612 0.8H126.536L123.442 14.179L126.672 28H123.748L122.252 21.268L121.368 15.556H120.246L119.362 21.268L117.832 28H114.891Z" fill="#D1A2FF"/>
</svg>
